<svg xmlns="http://www.w3.org/2000/svg" xmlns:xlink="http://www.w3.org/1999/xlink" data-name="Layer 1" viewBox="0 0 128 128"><defs><clipPath id="b"><circle cx="64" cy="64" r="64" fill="none"/></clipPath><clipPath id="c"><path fill="none" d="M104-163H24a24.07 24.07 0 00-24 24v80a24.07 24.07 0 0024 24h80a24.07 24.07 0 0024-24v-80a24.07 24.07 0 00-24-24zm16 104a16 16 0 01-16 16H24A16 16 0 018-59v-80a16 16 0 0116-16h80a16 16 0 0116 16z"/></clipPath><clipPath id="e"><circle cx="82" cy="209" r="5" fill="none"/></clipPath><clipPath id="g"><path fill="none" d="M64-115a16 16 0 00-16 16 16 16 0 0016 16 16 16 0 0016-16 16 16 0 00-16-16zm0 24a8 8 0 01-8-8 8 8 0 018-8 8 8 0 018 8 8 8 0 01-8 8z"/></clipPath><clipPath id="h"><path fill="none" d="M84-63H44a16 16 0 01-16-16v-40a16 16 0 0116-16h40a16 16 0 0116 16v40a16 16 0 01-16 16zm-40-64a8 8 0 00-8 8v40a8 8 0 008 8h40a8 8 0 008-8v-40a8 8 0 00-8-8z"/></clipPath><clipPath id="i"><circle cx="82" cy="-117" r="5" fill="none"/></clipPath><radialGradient id="a" cx="27.5" cy="121.5" r="137.5" gradientUnits="userSpaceOnUse"><stop offset="0" stop-color="#ffd676"/><stop offset=".25" stop-color="#f2a454"/><stop offset=".38" stop-color="#f05c3c"/><stop offset=".7" stop-color="#c22f86"/><stop offset=".96" stop-color="#6666ad"/><stop offset=".99" stop-color="#5c6cb2"/></radialGradient><radialGradient id="d" cx="27.5" cy="-41.5" r="148.5" xlink:href="#a"/><radialGradient id="f" cx="13.87" cy="303.38" r="185.63" xlink:href="#a"/><radialGradient id="j" cx="13.87" cy="-22.62" r="185.63" xlink:href="#a"/></defs><g clip-path="url(#b)"><circle cx="27.5" cy="121.5" r="137.5" fill="url(#a)"/></g><g clip-path="url(#c)"><circle cx="27.5" cy="-41.5" r="148.5" fill="url(#d)"/></g><g clip-path="url(#e)"><circle cx="13.87" cy="303.38" r="185.63" fill="url(#f)"/></g><g clip-path="url(#g)"><circle cx="27.5" cy="-41.5" r="148.5" fill="url(#d)"/></g><g clip-path="url(#h)"><circle cx="27.5" cy="-41.5" r="148.5" fill="url(#d)"/></g><g clip-path="url(#i)"><circle cx="13.87" cy="-22.62" r="185.63" fill="url(#j)"/></g><circle cx="82" cy="46" r="5" fill="#fff"/><path fill="#fff" d="M64 48a16 16 0 1016 16 16 16 0 00-16-16zm0 24a8 8 0 118-8 8 8 0 01-8 8z"/><rect width="64" height="64" x="32" y="32" fill="none" stroke="#fff" stroke-miterlimit="10" stroke-width="8" rx="12" ry="12"/></svg>