<svg xmlns="http://www.w3.org/2000/svg" width="48" height="48" fill="none"><rect width="48" height="48" fill="#419FD9" rx="24"/><rect width="48" height="48" fill="url(#paint0_linear)" rx="24"/><path fill="#fff" d="M10.787 23.47c6.98-3.104 11.634-5.15 13.962-6.14 6.649-2.823 8.03-3.313 8.931-3.33.198-.003.64.047.928.284.242.201.309.472.34.662.032.19.072.624.04.963-.36 3.865-1.919 13.245-2.712 17.574-.336 1.832-.996 2.446-1.636 2.506-1.39.13-2.446-.938-3.793-1.84-2.107-1.41-3.297-2.288-5.343-3.664-2.363-1.59-.831-2.464.516-3.893.353-.373 6.478-6.063 6.597-6.578.015-.065.028-.306-.111-.433-.14-.127-.347-.083-.496-.049-.212.05-3.578 2.32-10.099 6.815-.955.67-1.82.996-2.596.98-.855-.02-2.5-.494-3.721-.9-1.5-.497-2.691-.76-2.588-1.605.054-.44.648-.89 1.781-1.351z"/><defs><linearGradient id="paint0_linear" x1="24" x2="24" y2="47.644" gradientUnits="userSpaceOnUse"><stop stop-color="#2AABEE"/><stop offset="1" stop-color="#229ED9"/></linearGradient></defs></svg>